<mxfile host="Electron" agent="Mozilla/5.0 (Windows NT 10.0; Win64; x64) AppleWebKit/537.36 (KHTML, like Gecko) draw.io/26.0.4 Chrome/128.0.6613.186 Electron/32.2.5 Safari/537.36" version="26.0.4">
  <diagram name="第 1 页" id="v6HV13zfCt8HO-QDFw7x">
    <mxGraphModel dx="491" dy="375" grid="1" gridSize="10" guides="1" tooltips="1" connect="1" arrows="1" fold="1" page="1" pageScale="1" pageWidth="827" pageHeight="1169" math="0" shadow="0">
      <root>
        <mxCell id="0" />
        <mxCell id="1" parent="0" />
        <mxCell id="vo16dBJYMyLvOBP5bZvq-1" value="c3=8" style="ellipse;whiteSpace=wrap;html=1;aspect=fixed;sketch=1;curveFitting=1;jiggle=2;fillColor=#d5e8d4;strokeColor=#82b366;fontFamily=Comic Sans MS;" vertex="1" parent="1">
          <mxGeometry x="170" y="340" width="40" height="40" as="geometry" />
        </mxCell>
        <mxCell id="vo16dBJYMyLvOBP5bZvq-2" value="c1=2" style="ellipse;whiteSpace=wrap;html=1;aspect=fixed;sketch=1;curveFitting=1;jiggle=2;fillColor=#f8cecc;strokeColor=#b85450;fontFamily=Comic Sans MS;" vertex="1" parent="1">
          <mxGeometry x="120" y="400" width="40" height="40" as="geometry" />
        </mxCell>
        <mxCell id="vo16dBJYMyLvOBP5bZvq-3" value="&lt;font&gt;c2=5&lt;/font&gt;" style="ellipse;whiteSpace=wrap;html=1;aspect=fixed;sketch=1;curveFitting=1;jiggle=2;fillColor=#f8cecc;strokeColor=#b85450;fontFamily=Comic Sans MS;" vertex="1" parent="1">
          <mxGeometry x="220" y="400" width="40" height="40" as="geometry" />
        </mxCell>
        <mxCell id="vo16dBJYMyLvOBP5bZvq-4" value="1" style="ellipse;whiteSpace=wrap;html=1;aspect=fixed;sketch=1;curveFitting=1;jiggle=2;fillColor=#ffe6cc;strokeColor=#d79b00;fontFamily=Comic Sans MS;" vertex="1" parent="1">
          <mxGeometry x="80" y="480" width="40" height="40" as="geometry" />
        </mxCell>
        <mxCell id="vo16dBJYMyLvOBP5bZvq-5" value="2" style="ellipse;whiteSpace=wrap;html=1;aspect=fixed;sketch=1;curveFitting=1;jiggle=2;fillColor=#ffe6cc;strokeColor=#d79b00;fontFamily=Comic Sans MS;" vertex="1" parent="1">
          <mxGeometry x="150" y="480" width="40" height="40" as="geometry" />
        </mxCell>
        <mxCell id="vo16dBJYMyLvOBP5bZvq-6" value="4" style="ellipse;whiteSpace=wrap;html=1;aspect=fixed;sketch=1;curveFitting=1;jiggle=2;fillColor=#ffe6cc;strokeColor=#d79b00;fontFamily=Comic Sans MS;" vertex="1" parent="1">
          <mxGeometry x="270" y="480" width="40" height="40" as="geometry" />
        </mxCell>
        <mxCell id="vo16dBJYMyLvOBP5bZvq-7" value="3" style="ellipse;whiteSpace=wrap;html=1;aspect=fixed;sketch=1;curveFitting=1;jiggle=2;fillColor=#ffe6cc;strokeColor=#d79b00;fontFamily=Comic Sans MS;" vertex="1" parent="1">
          <mxGeometry x="200" y="480" width="40" height="40" as="geometry" />
        </mxCell>
        <mxCell id="vo16dBJYMyLvOBP5bZvq-8" value="" style="endArrow=none;html=1;rounded=0;exitX=0.675;exitY=-0.032;exitDx=0;exitDy=0;exitPerimeter=0;sketch=1;curveFitting=1;jiggle=2;fontFamily=Comic Sans MS;" edge="1" parent="1" source="vo16dBJYMyLvOBP5bZvq-4" target="vo16dBJYMyLvOBP5bZvq-2">
          <mxGeometry width="50" height="50" relative="1" as="geometry">
            <mxPoint x="280" y="450" as="sourcePoint" />
            <mxPoint x="330" y="400" as="targetPoint" />
          </mxGeometry>
        </mxCell>
        <mxCell id="vo16dBJYMyLvOBP5bZvq-9" value="" style="endArrow=none;html=1;rounded=0;exitX=0.25;exitY=0;exitDx=0;exitDy=0;exitPerimeter=0;sketch=1;curveFitting=1;jiggle=2;entryX=1;entryY=1;entryDx=0;entryDy=0;fontFamily=Comic Sans MS;" edge="1" parent="1" source="vo16dBJYMyLvOBP5bZvq-5" target="vo16dBJYMyLvOBP5bZvq-2">
          <mxGeometry width="50" height="50" relative="1" as="geometry">
            <mxPoint x="117" y="489" as="sourcePoint" />
            <mxPoint x="140" y="447" as="targetPoint" />
          </mxGeometry>
        </mxCell>
        <mxCell id="vo16dBJYMyLvOBP5bZvq-10" value="" style="endArrow=none;html=1;rounded=0;exitX=0.5;exitY=0;exitDx=0;exitDy=0;sketch=1;curveFitting=1;jiggle=2;entryX=0;entryY=1;entryDx=0;entryDy=0;fontFamily=Comic Sans MS;" edge="1" parent="1" source="vo16dBJYMyLvOBP5bZvq-7" target="vo16dBJYMyLvOBP5bZvq-3">
          <mxGeometry width="50" height="50" relative="1" as="geometry">
            <mxPoint x="127" y="499" as="sourcePoint" />
            <mxPoint x="150" y="457" as="targetPoint" />
          </mxGeometry>
        </mxCell>
        <mxCell id="vo16dBJYMyLvOBP5bZvq-11" value="" style="endArrow=none;html=1;rounded=0;exitX=0.411;exitY=0.075;exitDx=0;exitDy=0;exitPerimeter=0;sketch=1;curveFitting=1;jiggle=2;entryX=0.975;entryY=0.861;entryDx=0;entryDy=0;entryPerimeter=0;fontFamily=Comic Sans MS;" edge="1" parent="1" source="vo16dBJYMyLvOBP5bZvq-6" target="vo16dBJYMyLvOBP5bZvq-3">
          <mxGeometry width="50" height="50" relative="1" as="geometry">
            <mxPoint x="137" y="509" as="sourcePoint" />
            <mxPoint x="160" y="467" as="targetPoint" />
          </mxGeometry>
        </mxCell>
        <mxCell id="vo16dBJYMyLvOBP5bZvq-12" value="" style="endArrow=none;html=1;rounded=0;exitX=1;exitY=0;exitDx=0;exitDy=0;sketch=1;curveFitting=1;jiggle=2;entryX=0.032;entryY=0.732;entryDx=0;entryDy=0;fontFamily=Comic Sans MS;entryPerimeter=0;" edge="1" parent="1" source="vo16dBJYMyLvOBP5bZvq-2" target="vo16dBJYMyLvOBP5bZvq-1">
          <mxGeometry width="50" height="50" relative="1" as="geometry">
            <mxPoint x="170" y="490" as="sourcePoint" />
            <mxPoint x="164" y="444" as="targetPoint" />
          </mxGeometry>
        </mxCell>
        <mxCell id="vo16dBJYMyLvOBP5bZvq-13" value="" style="endArrow=none;html=1;rounded=0;sketch=1;curveFitting=1;jiggle=2;entryX=1;entryY=1;entryDx=0;entryDy=0;fontFamily=Comic Sans MS;" edge="1" parent="1" source="vo16dBJYMyLvOBP5bZvq-3" target="vo16dBJYMyLvOBP5bZvq-1">
          <mxGeometry width="50" height="50" relative="1" as="geometry">
            <mxPoint x="164" y="416" as="sourcePoint" />
            <mxPoint x="181" y="379" as="targetPoint" />
          </mxGeometry>
        </mxCell>
        <mxCell id="vo16dBJYMyLvOBP5bZvq-14" value="1" style="ellipse;whiteSpace=wrap;html=1;aspect=fixed;sketch=1;curveFitting=1;jiggle=2;fillColor=#ffe6cc;strokeColor=#d79b00;fontFamily=Comic Sans MS;" vertex="1" parent="1">
          <mxGeometry x="380" y="370" width="40" height="40" as="geometry" />
        </mxCell>
        <mxCell id="vo16dBJYMyLvOBP5bZvq-15" value="2" style="ellipse;whiteSpace=wrap;html=1;aspect=fixed;sketch=1;curveFitting=1;jiggle=2;fillColor=#ffe6cc;strokeColor=#d79b00;fontFamily=Comic Sans MS;" vertex="1" parent="1">
          <mxGeometry x="374" y="500" width="40" height="40" as="geometry" />
        </mxCell>
        <mxCell id="vo16dBJYMyLvOBP5bZvq-16" value="3" style="ellipse;whiteSpace=wrap;html=1;aspect=fixed;sketch=1;curveFitting=1;jiggle=2;fillColor=#ffe6cc;strokeColor=#d79b00;fontFamily=Comic Sans MS;" vertex="1" parent="1">
          <mxGeometry x="510" y="480" width="40" height="40" as="geometry" />
        </mxCell>
        <mxCell id="vo16dBJYMyLvOBP5bZvq-17" value="4" style="ellipse;whiteSpace=wrap;html=1;aspect=fixed;sketch=1;curveFitting=1;jiggle=2;fillColor=#ffe6cc;strokeColor=#d79b00;fontFamily=Comic Sans MS;" vertex="1" parent="1">
          <mxGeometry x="490" y="360" width="40" height="40" as="geometry" />
        </mxCell>
        <mxCell id="vo16dBJYMyLvOBP5bZvq-18" value="" style="endArrow=none;html=1;rounded=0;entryX=0.346;entryY=0.989;entryDx=0;entryDy=0;entryPerimeter=0;exitX=0.339;exitY=-0.004;exitDx=0;exitDy=0;exitPerimeter=0;sketch=1;curveFitting=1;jiggle=2;fontFamily=Comic Sans MS;" edge="1" parent="1" source="vo16dBJYMyLvOBP5bZvq-15" target="vo16dBJYMyLvOBP5bZvq-14">
          <mxGeometry width="50" height="50" relative="1" as="geometry">
            <mxPoint x="310" y="480" as="sourcePoint" />
            <mxPoint x="360" y="430" as="targetPoint" />
          </mxGeometry>
        </mxCell>
        <mxCell id="vo16dBJYMyLvOBP5bZvq-19" value="2" style="edgeLabel;html=1;align=center;verticalAlign=middle;resizable=0;points=[];fontFamily=Comic Sans MS;" vertex="1" connectable="0" parent="vo16dBJYMyLvOBP5bZvq-18">
          <mxGeometry x="0.0677" relative="1" as="geometry">
            <mxPoint as="offset" />
          </mxGeometry>
        </mxCell>
        <mxCell id="vo16dBJYMyLvOBP5bZvq-20" value="" style="endArrow=none;html=1;rounded=0;entryX=0.746;entryY=0.968;entryDx=0;entryDy=0;entryPerimeter=0;exitX=0.5;exitY=0;exitDx=0;exitDy=0;sketch=1;curveFitting=1;jiggle=2;fontFamily=Comic Sans MS;" edge="1" parent="1" source="vo16dBJYMyLvOBP5bZvq-16" target="vo16dBJYMyLvOBP5bZvq-17">
          <mxGeometry width="50" height="50" relative="1" as="geometry">
            <mxPoint x="310" y="480" as="sourcePoint" />
            <mxPoint x="360" y="430" as="targetPoint" />
          </mxGeometry>
        </mxCell>
        <mxCell id="vo16dBJYMyLvOBP5bZvq-21" value="5" style="edgeLabel;html=1;align=center;verticalAlign=middle;resizable=0;points=[];fontFamily=Comic Sans MS;" vertex="1" connectable="0" parent="vo16dBJYMyLvOBP5bZvq-20">
          <mxGeometry x="0.0454" y="1" relative="1" as="geometry">
            <mxPoint as="offset" />
          </mxGeometry>
        </mxCell>
        <mxCell id="vo16dBJYMyLvOBP5bZvq-22" value="" style="endArrow=none;html=1;rounded=0;entryX=0;entryY=0.5;entryDx=0;entryDy=0;exitX=1;exitY=0.5;exitDx=0;exitDy=0;sketch=1;curveFitting=1;jiggle=2;fontFamily=Comic Sans MS;" edge="1" parent="1" source="vo16dBJYMyLvOBP5bZvq-14" target="vo16dBJYMyLvOBP5bZvq-17">
          <mxGeometry width="50" height="50" relative="1" as="geometry">
            <mxPoint x="428" y="480" as="sourcePoint" />
            <mxPoint x="428" y="430" as="targetPoint" />
          </mxGeometry>
        </mxCell>
        <mxCell id="vo16dBJYMyLvOBP5bZvq-23" value="2" style="edgeLabel;html=1;align=center;verticalAlign=middle;resizable=0;points=[];fontFamily=Comic Sans MS;" vertex="1" connectable="0" parent="vo16dBJYMyLvOBP5bZvq-22">
          <mxGeometry x="0.0677" relative="1" as="geometry">
            <mxPoint as="offset" />
          </mxGeometry>
        </mxCell>
        <mxCell id="vo16dBJYMyLvOBP5bZvq-24" value="12" style="edgeLabel;html=1;align=center;verticalAlign=middle;resizable=0;points=[];fontFamily=Comic Sans MS;" vertex="1" connectable="0" parent="vo16dBJYMyLvOBP5bZvq-22">
          <mxGeometry x="-0.0159" y="-1" relative="1" as="geometry">
            <mxPoint as="offset" />
          </mxGeometry>
        </mxCell>
        <mxCell id="vo16dBJYMyLvOBP5bZvq-27" value="" style="endArrow=none;html=1;rounded=0;entryX=0.068;entryY=0.418;entryDx=0;entryDy=0;entryPerimeter=0;exitX=1.046;exitY=0.382;exitDx=0;exitDy=0;exitPerimeter=0;sketch=1;curveFitting=1;jiggle=2;fontFamily=Comic Sans MS;" edge="1" parent="1" source="vo16dBJYMyLvOBP5bZvq-15" target="vo16dBJYMyLvOBP5bZvq-16">
          <mxGeometry width="50" height="50" relative="1" as="geometry">
            <mxPoint x="310" y="480" as="sourcePoint" />
            <mxPoint x="360" y="430" as="targetPoint" />
          </mxGeometry>
        </mxCell>
        <mxCell id="vo16dBJYMyLvOBP5bZvq-28" value="8" style="edgeLabel;html=1;align=center;verticalAlign=middle;resizable=0;points=[];fontFamily=Comic Sans MS;" vertex="1" connectable="0" parent="vo16dBJYMyLvOBP5bZvq-27">
          <mxGeometry x="-0.0821" y="2" relative="1" as="geometry">
            <mxPoint as="offset" />
          </mxGeometry>
        </mxCell>
        <mxCell id="vo16dBJYMyLvOBP5bZvq-29" value="" style="endArrow=classic;html=1;rounded=0;entryX=1.011;entryY=0.718;entryDx=0;entryDy=0;entryPerimeter=0;fillColor=#f8cecc;strokeColor=#b85450;sketch=1;curveFitting=1;jiggle=2;" edge="1" parent="1" target="vo16dBJYMyLvOBP5bZvq-2">
          <mxGeometry width="50" height="50" relative="1" as="geometry">
            <mxPoint x="390" y="450" as="sourcePoint" />
            <mxPoint x="330" y="400" as="targetPoint" />
          </mxGeometry>
        </mxCell>
        <mxCell id="vo16dBJYMyLvOBP5bZvq-30" value="" style="endArrow=classic;html=1;rounded=0;entryX=1;entryY=0.5;entryDx=0;entryDy=0;fillColor=#f8cecc;strokeColor=#b85450;sketch=1;curveFitting=1;jiggle=2;" edge="1" parent="1" target="vo16dBJYMyLvOBP5bZvq-3">
          <mxGeometry width="50" height="50" relative="1" as="geometry">
            <mxPoint x="520" y="430" as="sourcePoint" />
            <mxPoint x="170" y="439" as="targetPoint" />
          </mxGeometry>
        </mxCell>
        <mxCell id="vo16dBJYMyLvOBP5bZvq-31" value="" style="endArrow=classic;html=1;rounded=0;fillColor=#d5e8d4;strokeColor=#82b366;sketch=1;curveFitting=1;jiggle=2;" edge="1" parent="1" target="vo16dBJYMyLvOBP5bZvq-1">
          <mxGeometry width="50" height="50" relative="1" as="geometry">
            <mxPoint x="460" y="500" as="sourcePoint" />
            <mxPoint x="170" y="439" as="targetPoint" />
          </mxGeometry>
        </mxCell>
        <mxCell id="vo16dBJYMyLvOBP5bZvq-32" value="1~4" style="shape=crossbar;whiteSpace=wrap;html=1;rounded=1;rotation=0;sketch=1;curveFitting=1;jiggle=2;fontFamily=Comic Sans MS;fillColor=#f8cecc;strokeColor=#b85450;" vertex="1" parent="1">
          <mxGeometry x="120" y="680" width="160" height="20" as="geometry" />
        </mxCell>
        <mxCell id="vo16dBJYMyLvOBP5bZvq-35" value="1~2" style="shape=crossbar;whiteSpace=wrap;html=1;rounded=1;rotation=0;sketch=1;curveFitting=1;jiggle=2;fontFamily=Comic Sans MS;fillColor=#f8cecc;strokeColor=#b85450;" vertex="1" parent="1">
          <mxGeometry x="80" y="750" width="80" height="20" as="geometry" />
        </mxCell>
        <mxCell id="vo16dBJYMyLvOBP5bZvq-37" value="3~4" style="shape=crossbar;whiteSpace=wrap;html=1;rounded=1;rotation=0;sketch=1;curveFitting=1;jiggle=2;fontFamily=Comic Sans MS;fillColor=#f8cecc;strokeColor=#b85450;" vertex="1" parent="1">
          <mxGeometry x="240" y="750" width="80" height="20" as="geometry" />
        </mxCell>
        <mxCell id="vo16dBJYMyLvOBP5bZvq-38" value="1" style="shape=crossbar;whiteSpace=wrap;html=1;rounded=1;rotation=0;sketch=1;curveFitting=1;jiggle=2;fontFamily=Comic Sans MS;fillColor=#fff2cc;strokeColor=#d6b656;" vertex="1" parent="1">
          <mxGeometry x="50" y="810" width="40" height="20" as="geometry" />
        </mxCell>
        <mxCell id="vo16dBJYMyLvOBP5bZvq-40" value="2" style="shape=crossbar;whiteSpace=wrap;html=1;rounded=1;rotation=0;sketch=1;curveFitting=1;jiggle=2;fontFamily=Comic Sans MS;fillColor=#fff2cc;strokeColor=#d6b656;" vertex="1" parent="1">
          <mxGeometry x="150" y="810" width="40" height="20" as="geometry" />
        </mxCell>
        <mxCell id="vo16dBJYMyLvOBP5bZvq-41" value="3" style="shape=crossbar;whiteSpace=wrap;html=1;rounded=1;rotation=0;sketch=1;curveFitting=1;jiggle=2;fontFamily=Comic Sans MS;fillColor=#fff2cc;strokeColor=#d6b656;" vertex="1" parent="1">
          <mxGeometry x="210" y="810" width="40" height="20" as="geometry" />
        </mxCell>
        <mxCell id="vo16dBJYMyLvOBP5bZvq-42" value="4" style="shape=crossbar;whiteSpace=wrap;html=1;rounded=1;rotation=0;sketch=1;curveFitting=1;jiggle=2;fontFamily=Comic Sans MS;fillColor=#fff2cc;strokeColor=#d6b656;" vertex="1" parent="1">
          <mxGeometry x="310" y="810" width="40" height="20" as="geometry" />
        </mxCell>
        <mxCell id="vo16dBJYMyLvOBP5bZvq-43" value="" style="endArrow=classic;html=1;rounded=0;entryX=0.698;entryY=0.607;entryDx=0;entryDy=0;entryPerimeter=0;sketch=1;curveFitting=1;jiggle=2;exitX=0.5;exitY=0.5;exitDx=0;exitDy=0;exitPerimeter=0;" edge="1" parent="1" source="vo16dBJYMyLvOBP5bZvq-32" target="vo16dBJYMyLvOBP5bZvq-35">
          <mxGeometry width="50" height="50" relative="1" as="geometry">
            <mxPoint x="270" y="730" as="sourcePoint" />
            <mxPoint x="320" y="680" as="targetPoint" />
          </mxGeometry>
        </mxCell>
        <mxCell id="vo16dBJYMyLvOBP5bZvq-44" value="" style="endArrow=classic;html=1;rounded=0;entryX=0.25;entryY=0.5;entryDx=0;entryDy=0;entryPerimeter=0;sketch=1;curveFitting=1;jiggle=2;exitX=0.5;exitY=0.5;exitDx=0;exitDy=0;exitPerimeter=0;" edge="1" parent="1" source="vo16dBJYMyLvOBP5bZvq-32" target="vo16dBJYMyLvOBP5bZvq-37">
          <mxGeometry width="50" height="50" relative="1" as="geometry">
            <mxPoint x="196" y="710" as="sourcePoint" />
            <mxPoint x="110" y="770" as="targetPoint" />
          </mxGeometry>
        </mxCell>
        <mxCell id="vo16dBJYMyLvOBP5bZvq-45" value="" style="endArrow=classic;html=1;rounded=0;entryX=0.5;entryY=0.5;entryDx=0;entryDy=0;entryPerimeter=0;sketch=1;curveFitting=1;jiggle=2;exitX=0.5;exitY=0.5;exitDx=0;exitDy=0;exitPerimeter=0;" edge="1" parent="1" source="vo16dBJYMyLvOBP5bZvq-35" target="vo16dBJYMyLvOBP5bZvq-38">
          <mxGeometry width="50" height="50" relative="1" as="geometry">
            <mxPoint x="206" y="720" as="sourcePoint" />
            <mxPoint x="120" y="780" as="targetPoint" />
          </mxGeometry>
        </mxCell>
        <mxCell id="vo16dBJYMyLvOBP5bZvq-46" value="" style="endArrow=classic;html=1;rounded=0;entryX=0.5;entryY=0.5;entryDx=0;entryDy=0;entryPerimeter=0;sketch=1;curveFitting=1;jiggle=2;exitX=0.5;exitY=0.5;exitDx=0;exitDy=0;exitPerimeter=0;" edge="1" parent="1" source="vo16dBJYMyLvOBP5bZvq-35" target="vo16dBJYMyLvOBP5bZvq-40">
          <mxGeometry width="50" height="50" relative="1" as="geometry">
            <mxPoint x="216" y="730" as="sourcePoint" />
            <mxPoint x="130" y="790" as="targetPoint" />
          </mxGeometry>
        </mxCell>
        <mxCell id="vo16dBJYMyLvOBP5bZvq-47" value="" style="endArrow=classic;html=1;rounded=0;entryX=0.5;entryY=0.5;entryDx=0;entryDy=0;entryPerimeter=0;sketch=1;curveFitting=1;jiggle=2;exitX=0.5;exitY=0.5;exitDx=0;exitDy=0;exitPerimeter=0;" edge="1" parent="1" source="vo16dBJYMyLvOBP5bZvq-37" target="vo16dBJYMyLvOBP5bZvq-41">
          <mxGeometry width="50" height="50" relative="1" as="geometry">
            <mxPoint x="226" y="740" as="sourcePoint" />
            <mxPoint x="140" y="800" as="targetPoint" />
          </mxGeometry>
        </mxCell>
        <mxCell id="vo16dBJYMyLvOBP5bZvq-48" value="" style="endArrow=classic;html=1;rounded=0;entryX=0.5;entryY=0.5;entryDx=0;entryDy=0;entryPerimeter=0;sketch=1;curveFitting=1;jiggle=2;exitX=0.5;exitY=0.5;exitDx=0;exitDy=0;exitPerimeter=0;" edge="1" parent="1" source="vo16dBJYMyLvOBP5bZvq-37" target="vo16dBJYMyLvOBP5bZvq-42">
          <mxGeometry width="50" height="50" relative="1" as="geometry">
            <mxPoint x="236" y="750" as="sourcePoint" />
            <mxPoint x="150" y="810" as="targetPoint" />
          </mxGeometry>
        </mxCell>
        <mxCell id="vo16dBJYMyLvOBP5bZvq-49" value="1~4" style="shape=crossbar;whiteSpace=wrap;html=1;rounded=1;rotation=0;sketch=1;curveFitting=1;jiggle=2;fontFamily=Comic Sans MS;fillColor=#d5e8d4;strokeColor=#82b366;" vertex="1" parent="1">
          <mxGeometry x="360" y="680" width="160" height="20" as="geometry" />
        </mxCell>
        <mxCell id="vo16dBJYMyLvOBP5bZvq-50" value="" style="endArrow=classic;html=1;rounded=0;entryX=0.941;entryY=0.493;entryDx=0;entryDy=0;entryPerimeter=0;sketch=1;curveFitting=1;jiggle=2;exitX=0.5;exitY=0.5;exitDx=0;exitDy=0;exitPerimeter=0;" edge="1" parent="1" source="vo16dBJYMyLvOBP5bZvq-49" target="vo16dBJYMyLvOBP5bZvq-35">
          <mxGeometry width="50" height="50" relative="1" as="geometry">
            <mxPoint x="210" y="700" as="sourcePoint" />
            <mxPoint x="146" y="772" as="targetPoint" />
          </mxGeometry>
        </mxCell>
        <mxCell id="vo16dBJYMyLvOBP5bZvq-51" value="3~4" style="shape=crossbar;whiteSpace=wrap;html=1;rounded=1;rotation=0;sketch=1;curveFitting=1;jiggle=2;fontFamily=Comic Sans MS;fillColor=#d5e8d4;strokeColor=#82b366;" vertex="1" parent="1">
          <mxGeometry x="450" y="750" width="80" height="20" as="geometry" />
        </mxCell>
        <mxCell id="vo16dBJYMyLvOBP5bZvq-52" value="" style="endArrow=classic;html=1;rounded=0;entryX=0.25;entryY=0.5;entryDx=0;entryDy=0;entryPerimeter=0;sketch=1;curveFitting=1;jiggle=2;exitX=0.5;exitY=0.5;exitDx=0;exitDy=0;exitPerimeter=0;fillColor=#d5e8d4;strokeColor=#82b366;" edge="1" parent="1" source="vo16dBJYMyLvOBP5bZvq-49" target="vo16dBJYMyLvOBP5bZvq-51">
          <mxGeometry width="50" height="50" relative="1" as="geometry">
            <mxPoint x="450" y="700" as="sourcePoint" />
            <mxPoint x="165" y="770" as="targetPoint" />
          </mxGeometry>
        </mxCell>
        <mxCell id="vo16dBJYMyLvOBP5bZvq-53" value="" style="endArrow=classic;html=1;rounded=0;entryX=1;entryY=0.5;entryDx=0;entryDy=0;entryPerimeter=0;sketch=1;curveFitting=1;jiggle=2;exitX=0.25;exitY=0.5;exitDx=0;exitDy=0;exitPerimeter=0;" edge="1" parent="1" source="vo16dBJYMyLvOBP5bZvq-51" target="vo16dBJYMyLvOBP5bZvq-41">
          <mxGeometry width="50" height="50" relative="1" as="geometry">
            <mxPoint x="460" y="710" as="sourcePoint" />
            <mxPoint x="175" y="780" as="targetPoint" />
          </mxGeometry>
        </mxCell>
        <mxCell id="vo16dBJYMyLvOBP5bZvq-54" value="4" style="shape=crossbar;whiteSpace=wrap;html=1;rounded=1;rotation=0;sketch=1;curveFitting=1;jiggle=2;fontFamily=Comic Sans MS;fillColor=#d5e8d4;strokeColor=#82b366;" vertex="1" parent="1">
          <mxGeometry x="490" y="810" width="40" height="20" as="geometry" />
        </mxCell>
        <mxCell id="vo16dBJYMyLvOBP5bZvq-55" value="" style="endArrow=classic;html=1;rounded=0;entryX=0.75;entryY=0.5;entryDx=0;entryDy=0;entryPerimeter=0;sketch=1;curveFitting=1;jiggle=2;exitX=0.75;exitY=0.5;exitDx=0;exitDy=0;exitPerimeter=0;fillColor=#d5e8d4;strokeColor=#82b366;" edge="1" parent="1" source="vo16dBJYMyLvOBP5bZvq-51" target="vo16dBJYMyLvOBP5bZvq-54">
          <mxGeometry width="50" height="50" relative="1" as="geometry">
            <mxPoint x="480" y="770" as="sourcePoint" />
            <mxPoint x="260" y="830" as="targetPoint" />
          </mxGeometry>
        </mxCell>
        <mxCell id="vo16dBJYMyLvOBP5bZvq-56" value="1" style="ellipse;whiteSpace=wrap;html=1;aspect=fixed;sketch=1;curveFitting=1;jiggle=2;fillColor=#ffe6cc;strokeColor=#d79b00;fontFamily=Comic Sans MS;" vertex="1" parent="1">
          <mxGeometry x="120" y="620" width="40" height="40" as="geometry" />
        </mxCell>
        <mxCell id="vo16dBJYMyLvOBP5bZvq-57" value="3" style="ellipse;whiteSpace=wrap;html=1;aspect=fixed;sketch=1;curveFitting=1;jiggle=2;fillColor=#ffe6cc;strokeColor=#d79b00;fontFamily=Comic Sans MS;" vertex="1" parent="1">
          <mxGeometry x="240" y="620" width="40" height="40" as="geometry" />
        </mxCell>
        <mxCell id="vo16dBJYMyLvOBP5bZvq-58" value="2" style="ellipse;whiteSpace=wrap;html=1;aspect=fixed;sketch=1;curveFitting=1;jiggle=2;fillColor=#ffe6cc;strokeColor=#d79b00;fontFamily=Comic Sans MS;" vertex="1" parent="1">
          <mxGeometry x="180" y="620" width="40" height="40" as="geometry" />
        </mxCell>
        <mxCell id="vo16dBJYMyLvOBP5bZvq-59" value="4" style="ellipse;whiteSpace=wrap;html=1;aspect=fixed;sketch=1;curveFitting=1;jiggle=2;fillColor=#d5e8d4;strokeColor=#82b366;fontFamily=Comic Sans MS;" vertex="1" parent="1">
          <mxGeometry x="414" y="620" width="40" height="40" as="geometry" />
        </mxCell>
        <mxCell id="vo16dBJYMyLvOBP5bZvq-60" value="Add arr[4]" style="text;html=1;align=center;verticalAlign=middle;resizable=0;points=[];autosize=1;strokeColor=none;fillColor=none;fontFamily=Comic Sans MS;fontColor=default;" vertex="1" parent="1">
          <mxGeometry x="310" y="625" width="80" height="30" as="geometry" />
        </mxCell>
        <mxCell id="vo16dBJYMyLvOBP5bZvq-61" value="Add edge(2,3,8)" style="text;html=1;align=center;verticalAlign=middle;resizable=0;points=[];autosize=1;strokeColor=none;fillColor=none;fontFamily=Comic Sans MS;fontColor=default;" vertex="1" parent="1">
          <mxGeometry x="265" y="340" width="110" height="30" as="geometry" />
        </mxCell>
      </root>
    </mxGraphModel>
  </diagram>
</mxfile>
